Coordinates
version=1
nRows=11
nColumns=40
inDegrees=yes

Units are S.I. units (second, meters, Newtons, ...)
Angles are in degrees.

endheader
time	pelvis_tilt	pelvis_list	pelvis_rotation	pelvis_tx	pelvis_ty	pelvis_tz	hip_flexion_r	hip_adduction_r	hip_rotation_r	knee_angle_r	knee_angle_r_beta	ankle_angle_r	subtalar_angle_r	mtp_angle_r	hip_flexion_l	hip_adduction_l	hip_rotation_l	knee_angle_l	knee_angle_l_beta	ankle_angle_l	subtalar_angle_l	mtp_angle_l	lumbar_extension	lumbar_bending	lumbar_rotation	arm_flex_r	arm_add_r	arm_rot_r	elbow_flex_r	pro_sup_r	wrist_flex_r	wrist_dev_r	arm_flex_l	arm_add_l	arm_rot_l	elbow_flex_l	pro_sup_l	wrist_flex_l	wrist_dev_l
     46.78250000	     -3.23039141	     -4.60311056	      7.09178718	      1.08016134	      0.92540829	      0.43252893	      1.37645151	     -1.66187913	    -16.21716621	     23.98872928	     23.98872928	     15.70209439	     -1.66400791	     -7.53667221	     24.69025433	     -5.95613061	     -2.08132904	     25.70777265	     25.70777265	      7.89705648	    -12.45620052	      4.92240079	     -8.19759617	      3.97964254	      4.02186324	     27.92186421	    -17.02498169	     -2.67872900	     54.50540803	     46.10174836	      0.00000000	      0.00000000	      1.16025303	     -9.79669608	     -5.87267411	     37.58877553	     46.10872772	      0.00000000	      0.00000000
     46.79600000	     -3.26806191	     -4.55407646	      6.97538891	      1.08039833	      0.92615000	      0.42887488	      2.49765013	     -2.34645971	    -15.69399409	     26.54275770	     26.54275770	     13.72372426	     -3.54886260	    -11.64766559	     24.10281316	     -5.79425873	     -2.47669089	     25.41329707	     25.41329707	      8.04820279	    -12.18102193	      4.07483489	     -8.11409435	      3.93463079	      3.36354039	     28.01083263	    -16.56449838	     -0.80767919	     48.62093632	     46.17042947	      0.00000000	      0.00000000	      1.44543036	    -10.17908032	     -5.79557896	     38.74478832	     46.10940272	      0.00000000	      0.00000000
     46.80950000	     -3.22011934	     -4.36170567	      6.86111802	      1.08048485	      0.92701250	      0.42519034	      3.88396915	     -3.33177599	    -15.30091337	     29.90650562	     29.90650562	     12.81633200	     -4.61267928	    -12.36863494	     23.36644994	     -5.50548424	     -2.99675573	     25.06152215	     25.06152215	      8.38969362	    -11.69032158	      3.83199126	     -8.34406110	      3.75068800	      3.42900791	     26.23515617	    -16.69775932	     -0.52369034	     47.19404045	     46.19385836	      0.00000000	      0.00000000	      2.47522305	    -10.36150343	     -5.89458551	     39.39916659	     46.13736202	      0.00000000	      0.00000000
     46.82300000	     -3.35770838	     -4.29969901	      6.65734035	      1.08042082	      0.92746831	      0.42183828	      5.69457046	     -4.13021942	    -14.57686718	     33.47804778	     33.47804778	     11.43623968	     -6.14985444	    -13.45721824	     22.87981012	     -5.38032068	     -3.57633139	     24.76500650	     24.76500650	      8.76540663	    -11.11036786	      3.37009131	     -8.25189357	      3.66351299	      3.69894066	     24.39439529	    -16.86547107	     -0.05921823	     44.98889491	     46.23398798	      0.00000000	      0.00000000	      3.45831740	    -10.51019943	     -5.89091927	     40.14962518	     46.15385814	      0.00000000	      0.00000000
     46.83650000	     -3.30182244	     -4.27726019	      6.53915697	      1.08028244	      0.92805177	      0.41862548	      7.27743400	     -4.75034051	    -13.77158545	     36.76614080	     36.76614080	      8.66368879	     -8.79844078	    -17.27091183	     22.25348983	     -5.35894008	     -4.24866087	     24.52813889	     24.52813889	      8.85060251	    -10.36416282	      2.10003294	     -8.36323251	      3.64862654	      3.04012167	     24.13967370	    -16.33962541	      1.44356092	     40.08787905	     46.28860108	      0.00000000	      0.00000000	      3.89019315	    -11.14651446	     -5.21580342	     41.26930436	     46.10171026	      0.00000000	      0.00000000
     46.85000000	     -3.17998899	     -4.10120314	      6.43760533	      1.08002711	      0.92857433	      0.41537240	      9.03072761	     -5.68690916	    -13.22774244	     40.62420056	     40.62420056	      7.13902867	     -9.83216318	    -17.44092082	     21.54987044	     -5.10299315	     -4.68335111	     24.32658508	     24.32658508	      9.25183627	     -9.90811486	      1.83646430	     -8.70011528	      3.47494946	      2.73230704	     22.33029012	    -16.19034270	      1.65791454	     39.09096557	     46.29878974	      0.00000000	      0.00000000	      4.88676041	    -11.51988110	     -5.34145306	     41.85660715	     46.13217245	      0.00000000	      0.00000000
     46.86350000	     -3.21714071	     -3.94706289	      6.26946799	      1.07952491	      0.92876794	      0.41247215	     11.11464451	     -6.49182855	    -12.38567733	     44.51430507	     44.51430507	      5.40716565	    -11.15167982	    -17.32402033	     21.07517956	     -4.91832402	     -5.28404199	     24.19282135	     24.19282135	      9.59110138	     -9.33026138	      1.49437686	     -8.80491194	      3.31171087	      2.65213889	     20.37754992	    -16.11003900	      1.91418511	     37.82860212	     46.31542536	      0.00000000	      0.00000000	      5.82884003	    -11.87543284	     -5.43444193	     42.52011323	     46.15921183	      0.00000000	      0.00000000
     46.87700000	     -3.16562041	     -3.85113020	      6.13367430	      1.07900173	      0.92898496	      0.40983011	     13.09387095	     -7.11828869	    -11.53126285	     48.19294227	     48.19294227	      3.64423638	    -12.37099936	    -16.88744157	     20.57941071	     -4.81750418	     -5.80816772	     24.16533573	     24.16533573	      9.98906097	     -8.76530316	      1.10742804	     -9.02137854	      3.15927944	      2.41407014	     18.48481431	    -15.96896497	      2.15424285	     36.61635797	     46.33163484	      0.00000000	      0.00000000	      6.82317170	    -12.30384905	     -5.49668005	     43.15276608	     46.18337197	      0.00000000	      0.00000000
     46.89050000	     -3.17166224	     -3.86994901	      5.89385847	      1.07841723	      0.92909647	      0.40762838	     15.17568678	     -7.46736490	    -10.53963115	     51.65796615	     51.65796615	      2.03121763	    -13.48667028	    -15.90236061	     20.16443491	     -4.88956706	     -6.38503429	     24.16072843	     24.16072843	     10.43280571	     -8.10678448	      0.65200793	     -9.13922303	      3.11472063	      2.29755838	     16.57222255	    -15.85506845	      2.40367265	     35.28557700	     46.35042318	      0.00000000	      0.00000000	      7.72047012	    -12.66396681	     -5.47410884	     43.79464469	     46.19853467	      0.00000000	      0.00000000
     46.90400000	     -3.02714091	     -3.99456767	      5.75376750	      1.07781967	      0.92932308	      0.40564161	     17.17580808	     -7.62502877	     -9.67160656	     55.19599730	     55.19599730	      2.33402714	    -13.06674400	     -9.96337463	     19.71686125	     -5.16648834	     -7.11712127	     24.35076752	     24.35076752	     10.87993461	     -7.00572021	     -0.03499297	     -9.36510170	      3.28281316	      2.02489276	     15.11290647	    -15.54381166	      2.78785924	     32.98510038	     46.36569063	      0.00000000	      0.00000000	      8.55131538	    -13.44773200	     -4.30926901	     44.50957576	     46.12316959	      0.00000000	      0.00000000
     46.91750000	     -2.91522740	     -4.02824302	      5.55774334	      1.07714708	      0.92961672	      0.40380871	     19.00351732	     -7.83245264	     -8.89164394	     57.99625735	     57.99625735	      1.42346236	    -13.40980676	     -8.19053626	     19.22650270	     -5.23514533	     -7.51312209	     24.39600736	     24.39600736	     11.29481102	     -6.68453216	     -0.23588830	     -9.62995206	      3.29172182	      1.88225916	     13.05573283	    -15.40430968	      2.78634700	     32.27943888	     46.35955032	      0.00000000	      0.00000000	      9.57764916	    -13.87171633	     -4.32128057	     44.95708315	     46.15476277	      0.00000000	      0.00000000
